<svg width="33" height="20" viewBox="0 0 33 20" fill="none" xmlns="http://www.w3.org/2000/svg">
<path d="M14.6667 0C13.6526 0 12.8333 0.638393 12.8333 1.42857V1.53125V5.97768C12.8333 6.22768 12.5755 6.42857 12.2547 6.42857C12.0484 6.42857 11.8536 6.34375 11.7505 6.20089L9.00052 2.45536C4.75521 4.08482 1.83333 7.49107 1.83333 11.4286V14.2857H31.1667V11.3214C31.1151 7.42857 28.2047 4.07143 23.9995 2.45536L21.2495 6.20089C21.1464 6.34375 20.9516 6.42857 20.7453 6.42857C20.4245 6.42857 20.1667 6.22768 20.1667 5.97768V1.53125V1.42857C20.1667 0.638393 19.3474 0 18.3333 0H14.6667ZM0.951042 15.7143C0.423958 15.7143 0 16.0446 0 16.4554C0 16.6652 0.114583 16.8661 0.332292 16.9866C1.57552 17.6964 6.40521 20 16.5 20C26.5948 20 31.4245 17.6964 32.6677 16.9866C32.8854 16.8616 33 16.6652 33 16.4554C33 16.0446 32.576 15.7143 32.049 15.7143H0.951042Z" fill="#001A4C"/>
</svg>
