<svg width="23" height="26" viewBox="0 0 23 26" fill="none" xmlns="http://www.w3.org/2000/svg">
<path d="M4.92857 6.5C4.92857 8.22391 5.62092 9.87721 6.8533 11.0962C8.08568 12.3152 9.75715 13 11.5 13C13.2429 13 14.9143 12.3152 16.1467 11.0962C17.3791 9.87721 18.0714 8.22391 18.0714 6.5C18.0714 4.77609 17.3791 3.12279 16.1467 1.90381C14.9143 0.68482 13.2429 0 11.5 0C9.75715 0 8.08568 0.68482 6.8533 1.90381C5.62092 3.12279 4.92857 4.77609 4.92857 6.5ZM9.78013 16.6664L10.735 18.2406L9.02545 24.5324L7.17723 17.0727C7.07455 16.6613 6.67411 16.3922 6.25826 16.4988C2.66451 17.3875 0 20.607 0 24.441C0 25.3043 0.708482 26 1.57612 26H8.3375C8.3375 26 8.3375 26 8.34263 26H8.625H14.375H14.6574C14.6574 26 14.6574 26 14.6625 26H21.4239C22.2967 26 23 25.2992 23 24.441C23 20.607 20.3355 17.3875 16.7417 16.4988C16.3259 16.3973 15.9254 16.6664 15.8228 17.0727L13.9746 24.5324L12.265 18.2406L13.2199 16.6664C13.5484 16.123 13.1531 15.4375 12.5165 15.4375H11.5H10.4886C9.85201 15.4375 9.4567 16.1281 9.78527 16.6664H9.78013Z" fill="#001A4C"/>
</svg>
