<svg width="33" height="20" viewBox="0 0 33 20" fill="none" xmlns="http://www.w3.org/2000/svg">
<path d="M2.475 0C1.10859 0 0 0.839844 0 1.875V14.375C0 15.4102 1.10859 16.25 2.475 16.25H3.3C3.3 18.3203 5.51719 20 8.25 20C10.9828 20 13.2 18.3203 13.2 16.25H19.8C19.8 18.3203 22.0172 20 24.75 20C27.4828 20 29.7 18.3203 29.7 16.25H31.35C32.2627 16.25 33 15.6914 33 15C33 14.3086 32.2627 13.75 31.35 13.75V11.25V10V9.26953C31.35 8.60547 31.0045 7.96875 30.3858 7.5L26.4 4.48047C25.7812 4.01172 24.9408 3.75 24.0642 3.75H21.45V1.875C21.45 0.839844 20.3414 0 18.975 0H2.475ZM21.45 6.25H24.0642L28.05 9.26953V10H21.45V6.25ZM5.775 16.25C5.775 15.7527 6.03576 15.2758 6.49991 14.9242C6.96406 14.5725 7.59359 14.375 8.25 14.375C8.90641 14.375 9.53594 14.5725 10.0001 14.9242C10.4642 15.2758 10.725 15.7527 10.725 16.25C10.725 16.7473 10.4642 17.2242 10.0001 17.5758C9.53594 17.9275 8.90641 18.125 8.25 18.125C7.59359 18.125 6.96406 17.9275 6.49991 17.5758C6.03576 17.2242 5.775 16.7473 5.775 16.25ZM24.75 14.375C25.4064 14.375 26.0359 14.5725 26.5001 14.9242C26.9642 15.2758 27.225 15.7527 27.225 16.25C27.225 16.7473 26.9642 17.2242 26.5001 17.5758C26.0359 17.9275 25.4064 18.125 24.75 18.125C24.0936 18.125 23.4641 17.9275 22.9999 17.5758C22.5358 17.2242 22.275 16.7473 22.275 16.25C22.275 15.7527 22.5358 15.2758 22.9999 14.9242C23.4641 14.5725 24.0936 14.375 24.75 14.375Z" fill="#001A4C"/>
</svg>
