<svg width="61" height="64" viewBox="0 0 61 64" fill="none" xmlns="http://www.w3.org/2000/svg">
<path d="M0 20.4042L28.8947 36.4569V63.7463L0 49.2989V20.4042Z" fill="#194471"/>
<path d="M61 20.4042L32.1053 36.4569V63.7463L61 49.2989V20.4042Z" fill="#0183D7"/>
<path d="M32.1052 1.94371L0.802616 19.6016L7.22369 23.0897L36.9209 5.43174L32.1052 1.94371Z" fill="#00BBEB"/>
<path d="M54.579 22.5425L28.0922 5.4318L32.1054 1.95164L60.1973 19.332L54.579 22.5425Z" fill="#00BBEB"/>
<path d="M22.4883 30.2051C21.0951 30.2051 19.9036 29.9089 18.9141 29.3164C17.9245 28.724 17.166 27.9036 16.6387 26.8555C16.1113 25.8073 15.8477 24.5898 15.8477 23.2031V22.7734C15.8477 21.3477 16.1113 20.0977 16.6387 19.0234C17.166 17.9427 17.9049 17.0996 18.8555 16.4941C19.8125 15.8822 20.9355 15.5762 22.2246 15.5762C23.2663 15.5762 24.2201 15.7129 25.0859 15.9863C25.9583 16.2598 26.7168 16.6634 27.3613 17.1973V20.293H25.3594L24.998 18.3496C24.7311 18.1348 24.3796 17.9655 23.9434 17.8418C23.5072 17.7116 23.0026 17.6465 22.4297 17.6465C21.6354 17.6465 20.9421 17.8613 20.3496 18.291C19.7572 18.7142 19.2982 19.3099 18.9727 20.0781C18.6536 20.8464 18.4941 21.7383 18.4941 22.7539V23.2031C18.4941 24.2057 18.6504 25.0781 18.9629 25.8203C19.2819 26.556 19.7409 27.1289 20.3398 27.5391C20.9453 27.9427 21.6842 28.1445 22.5566 28.1445C23.0905 28.1445 23.569 28.0957 23.9922 27.998C24.4219 27.9004 24.7799 27.7799 25.0664 27.6367V25.0293L22.8887 24.8828V22.998H27.7324V28.7012C27.1465 29.1374 26.4206 29.4987 25.5547 29.7852C24.6953 30.0651 23.6732 30.2051 22.4883 30.2051ZM32.9668 26.3867L31.5898 24.7949L38.5039 17.5586L38.5234 17.5195L37.1953 17.3926V15.7812H42.7715V17.3926L41.4336 17.6562L32.9668 26.3867ZM29.2754 30V28.3984L30.8086 28.1055V17.6855L29.2754 17.3926V15.7812H34.9395V17.3926L33.4648 17.6855V28.1055L34.9395 28.3984V30H29.2754ZM37.5078 30V28.3984L38.8066 28.2715V28.2617L35.125 23.1836L36.8438 21.377L41.9023 28.1543L43.2793 28.3984V30H37.5078Z" fill="#0183D7"/>
</svg>
