 <svg  version="1.0" xmlns="http://www.w3.org/2000/svg"  width="822.000000pt" height="105.000000pt" viewBox="0 0 822.000000 105.000000"  preserveAspectRatio="xMidYMid meet">  <g transform="translate(0.000000,105.000000) scale(0.100000,-0.100000)" fill="#ffffff" stroke="none"> <path d="M3830 1035 c0 -9 -8 -18 -17 -22 -41 -13 -163 -76 -173 -89 -34 -40 54 -47 121 -9 24 13 54 29 66 34 11 5 24 15 28 20 8 14 48 14 62 0 13 -13 37 -27 110 -63 36 -18 61 -24 78 -20 32 8 40 21 25 39 -15 18 -147 85 -167 85 -8 0 -17 9 -20 20 -5 17 -14 20 -59 20 -42 0 -54 -3 -54 -15z"/> <path d="M345 1010 c-16 -4 -41 -13 -54 -21 -33 -19 -91 -81 -91 -97 0 -7 -7 -23 -16 -37 -20 -30 -15 -191 7 -247 32 -78 114 -139 192 -142 44 -1 52 2 76 31 l26 31 40 -29 c42 -30 84 -38 86 -16 1 6 2 62 3 123 1 93 4 115 19 132 23 25 8 36 -28 22 -14 -5 -41 -10 -60 -10 -19 0 -46 5 -60 10 -36 14 -51 3 -29 -21 20 -22 31 -117 20 -171 -8 -39 -48 -72 -76 -63 -11 3 -32 19 -47 36 -66 70 -69 322 -5 404 19 24 32 29 77 33 51 4 57 2 78 -23 12 -15 31 -44 42 -63 11 -19 24 -34 28 -33 4 0 12 1 17 1 6 0 10 32 10 75 0 63 -3 75 -17 75 -9 0 -24 -7 -33 -15 -13 -12 -20 -12 -41 -1 -31 16 -124 25 -164 16z"/> <path d="M1058 1013 c-34 -3 -48 -8 -48 -19 0 -7 6 -14 14 -14 29 0 25 -20 -13 -64 -22 -25 -52 -68 -68 -96 -44 -78 -77 -79 -69 -2 3 26 8 73 11 105 5 40 11 57 21 57 8 0 14 7 14 15 0 12 -18 15 -105 15 -84 0 -105 -3 -105 -14 0 -8 10 -16 23 -18 22 -3 22 -3 25 -226 l2 -223 -25 -23 c-14 -13 -25 -25 -25 -28 0 -2 47 -4 105 -3 58 0 105 2 105 4 0 3 -7 12 -16 22 -9 11 -20 48 -24 91 -5 40 -11 80 -15 89 -3 10 -2 20 4 23 17 11 45 -10 66 -51 56 -108 101 -156 160 -172 80 -22 159 -7 103 20 -21 9 -158 178 -158 194 0 4 -13 24 -30 45 -34 43 -38 78 -12 101 9 8 39 41 66 72 26 31 56 57 66 57 10 0 23 6 29 14 10 12 8 17 -8 25 -11 6 -26 10 -33 9 -7 -1 -34 -3 -60 -5z"/> <path d="M2134 1008 c-30 -8 -93 -53 -114 -82 -47 -64 -64 -224 -32 -303 42 -102 115 -152 228 -154 100 -2 161 33 220 126 28 43 27 256 -1 300 -27 43 -67 85 -81 85 -6 0 -17 6 -23 14 -14 16 -154 26 -197 14z m139 -46 c43 -38 57 -94 57 -225 0 -93 -4 -128 -15 -143 -8 -10 -15 -26 -15 -34 0 -25 -51 -60 -86 -60 -63 0 -101 73 -111 214 -9 125 27 244 81 266 26 11 66 3 89 -18z"/> <path d="M4429 1011 c-15 -3 -47 -19 -73 -36 -125 -79 -143 -318 -33 -433 50 -53 110 -77 192 -77 58 0 76 4 103 24 46 32 92 108 83 135 -14 35 -31 29 -52 -19 -23 -52 -87 -105 -127 -105 -60 0 -109 57 -131 152 -14 60 -14 101 1 188 10 56 19 78 44 105 27 30 38 35 78 35 38 0 52 -5 75 -29 16 -16 34 -46 41 -66 8 -25 17 -35 28 -33 14 3 18 18 20 81 3 70 1 77 -16 77 -11 0 -25 -6 -32 -14 -11 -14 -39 -11 -50 4 -7 10 -120 18 -151 11z"/> <path d="M5921 990 c-11 -19 -21 -42 -21 -51 0 -8 -7 -24 -15 -35 -8 -10 -15 -29 -15 -42 0 -12 -6 -25 -14 -28 -8 -3 -18 -19 -21 -35 -4 -16 -11 -29 -16 -29 -5 0 -9 -7 -9 -15 0 -8 -9 -32 -20 -52 -11 -21 -20 -45 -20 -53 0 -8 -7 -24 -15 -34 -8 -11 -15 -27 -15 -36 0 -18 -57 -90 -71 -90 -5 0 -9 29 -9 65 0 65 0 65 -28 65 -28 0 -45 -25 -67 -97 -6 -21 -12 -23 -80 -23 -48 0 -77 4 -82 13 -9 14 -16 410 -8 445 5 20 11 22 73 22 78 0 87 -5 96 -45 10 -44 40 -79 60 -72 14 6 16 19 14 74 l-3 68 -207 0 c-132 0 -208 -4 -209 -10 0 -5 10 -12 23 -15 l23 -6 3 -214 c1 -118 0 -225 -3 -237 -3 -12 -14 -25 -26 -28 -11 -4 -18 -10 -14 -13 12 -12 585 -13 585 -1 0 6 -10 19 -21 28 -20 16 -21 20 -9 57 16 48 24 53 80 55 25 0 54 4 65 8 17 7 14 10 -18 20 -21 7 -45 10 -53 7 -29 -11 -32 4 -12 57 11 28 23 67 25 85 3 18 11 32 19 32 17 0 74 -117 74 -153 0 -14 4 -28 9 -31 5 -3 23 -35 41 -71 44 -88 62 -96 217 -102 153 -6 166 -3 124 36 l-31 29 0 156 c0 86 4 156 9 156 5 0 42 -39 84 -87 41 -49 91 -106 112 -128 20 -22 59 -70 87 -107 42 -57 53 -66 69 -58 13 8 17 18 13 43 -16 112 -20 194 -11 212 9 16 15 112 17 238 0 4 6 7 14 7 7 0 19 7 27 16 23 28 -2 33 -128 25 -23 -2 -13 -29 12 -35 24 -6 25 -9 25 -89 0 -45 3 -106 6 -134 8 -67 -7 -70 -56 -11 -222 265 -226 268 -321 268 -36 0 -49 -4 -49 -14 0 -9 12 -16 28 -18 l27 -3 -4 -220 -4 -220 -26 -22 c-14 -13 -32 -23 -38 -23 -14 0 -49 53 -80 120 -11 25 -35 75 -52 112 -17 37 -31 72 -31 77 0 5 -6 22 -14 38 -26 49 -46 101 -46 115 0 7 -11 26 -24 43 l-24 29 -21 -34z"/> <path d="M7454 1005 c-16 -11 -15 -14 12 -26 28 -14 29 -18 35 -99 3 -47 9 -109 14 -137 5 -38 4 -53 -4 -53 -13 0 -95 87 -237 252 -41 48 -83 68 -144 68 -54 0 -66 -14 -24 -30 l26 -10 -7 -218 c-7 -213 -7 -217 -31 -239 -39 -36 -30 -43 51 -43 82 0 93 9 51 45 -23 19 -24 27 -30 183 -5 129 -4 162 6 162 7 0 18 -8 25 -19 11 -18 168 -202 231 -271 17 -18 38 -48 48 -66 15 -27 25 -34 48 -34 28 0 28 1 22 42 -4 24 -4 136 0 250 l7 207 30 11 c23 7 28 13 20 21 -16 16 -129 19 -149 4z"/> <path d="M7830 1012 c-38 -6 -125 -69 -139 -99 -93 -201 -13 -422 160 -448 44 -7 49 -5 88 30 l41 37 31 -31 c34 -35 78 -42 80 -13 0 9 0 63 -1 119 -2 100 -1 103 26 128 34 32 25 42 -25 27 -48 -15 -91 -15 -127 -2 -15 6 -34 8 -42 5 -11 -4 -9 -10 10 -28 20 -18 26 -37 32 -89 8 -77 -3 -107 -45 -132 -29 -17 -31 -17 -62 4 -56 39 -67 74 -67 221 0 137 7 167 53 217 16 17 32 22 68 22 42 0 50 -4 83 -40 20 -22 36 -49 36 -60 0 -16 7 -20 30 -20 l31 0 -3 72 c-3 61 -6 73 -21 76 -10 2 -27 -4 -38 -14 -17 -15 -21 -16 -36 -2 -18 16 -119 28 -163 20z"/> <path d="M1460 995 c0 -8 7 -15 15 -15 23 0 27 -35 23 -254 -3 -184 -5 -209 -20 -220 -35 -25 -17 -32 87 -32 102 0 122 5 89 24 -12 7 -19 32 -24 88 -4 43 -6 82 -3 87 2 4 33 7 67 7 118 0 199 58 212 152 11 77 -25 126 -116 160 -63 23 -330 26 -330 3z m269 -36 c41 -30 58 -96 42 -158 -16 -62 -53 -93 -106 -89 l-40 3 4 125 c2 69 5 128 8 133 9 15 65 6 92 -14z"/> <path d="M2665 992 c-82 -47 -125 -132 -125 -249 0 -171 101 -282 252 -277 92 3 166 48 210 128 19 35 22 56 23 151 0 92 -3 116 -20 145 -29 52 -46 70 -87 96 -33 21 -50 24 -130 24 -69 0 -101 -5 -123 -18z m181 -35 c40 -41 54 -99 53 -215 0 -115 -14 -167 -56 -216 -23 -26 -74 -35 -98 -18 -65 45 -94 223 -61 365 25 108 101 147 162 84z"/> <path d="M3110 1001 c0 -5 10 -15 22 -23 21 -14 23 -23 26 -181 5 -199 -2 -272 -29 -295 -10 -9 -19 -19 -19 -22 0 -3 88 -6 196 -8 137 -2 200 1 210 9 9 8 14 33 14 75 0 63 0 64 -28 64 -28 0 -47 -27 -61 -90 -6 -23 -11 -25 -77 -28 -67 -3 -72 -1 -78 20 -3 13 -6 119 -6 236 0 206 1 214 20 219 11 3 20 12 20 19 0 11 -22 14 -105 14 -58 0 -105 -4 -105 -9z"/> <path d="M4760 1000 c0 -5 9 -14 21 -20 19 -11 20 -18 17 -236 -3 -201 -5 -227 -20 -238 -10 -7 -18 -17 -18 -22 0 -5 88 -10 194 -12 224 -3 216 -7 216 92 0 52 -2 56 -23 56 -24 0 -50 -39 -63 -92 -6 -27 -8 -28 -74 -28 -53 0 -69 4 -74 16 -3 9 -6 115 -6 236 0 211 1 220 20 225 11 3 20 12 20 19 0 11 -22 14 -105 14 -61 0 -105 -4 -105 -10z"/> <path d="M6800 1001 c0 -5 10 -15 23 -23 21 -15 22 -22 25 -184 4 -203 -2 -269 -29 -292 -10 -9 -19 -19 -19 -22 0 -3 47 -6 105 -6 104 0 122 7 88 32 -16 11 -18 37 -21 239 -3 221 -3 227 17 232 12 3 21 12 21 19 0 11 -22 14 -105 14 -58 0 -105 -4 -105 -9z"/> <path d="M3596 873 c-9 -9 -7 -276 2 -289 4 -6 30 -24 57 -38 28 -15 64 -36 80 -47 17 -10 37 -22 45 -25 8 -4 25 -16 37 -27 12 -10 26 -16 32 -13 7 5 10 60 8 153 l-2 146 -65 35 c-36 19 -84 47 -107 63 -60 40 -79 49 -87 42z"/> <path d="M4094 835 c-16 -13 -64 -42 -105 -63 l-74 -38 0 -114 c0 -63 -4 -130 -9 -147 -8 -31 -7 -33 17 -33 14 0 27 7 31 15 3 8 14 15 24 15 10 0 23 5 29 11 12 12 46 33 80 48 11 5 24 15 28 20 3 6 15 11 26 11 18 0 19 9 21 135 0 74 1 141 2 148 2 22 -38 17 -70 -8z m-89 -185 c-6 -9 -9 -9 -16 1 -10 17 0 34 13 21 6 -6 7 -16 3 -22z"/> <path d="M5491 797 c-27 -43 -26 -59 2 -108 36 -64 52 -49 52 51 0 71 -3 85 -16 88 -10 2 -25 -11 -38 -31z"/> <path d="M3567 272 c-57 -34 -44 -79 33 -121 19 -10 36 -23 38 -29 5 -17 -43 -25 -68 -12 -18 10 -25 9 -37 -3 -17 -17 -10 -37 13 -37 8 0 14 -4 14 -10 0 -18 60 -10 90 12 50 36 38 75 -33 118 -44 26 -38 43 15 44 42 1 45 17 7 39 -36 20 -36 20 -72 -1z"/> <path d="M3760 280 l-45 -5 -3 -100 c-3 -115 3 -125 75 -125 39 0 43 2 43 25 0 22 -4 25 -39 25 -40 0 -51 11 -43 43 2 10 14 17 27 17 12 0 28 6 34 14 9 11 5 15 -24 22 -48 12 -49 28 -2 32 41 4 59 26 36 46 -9 7 -31 10 -59 6z"/> <path d="M4338 272 c-30 -18 -58 -70 -58 -108 0 -81 98 -146 143 -96 29 32 22 45 -22 38 -36 -5 -42 -3 -62 25 -21 30 -21 32 -6 65 15 30 21 34 56 34 49 0 62 17 30 41 -29 22 -45 22 -81 1z"/> <path d="M4668 272 c-53 -32 -44 -76 22 -113 54 -30 50 -55 -7 -51 -50 3 -61 -10 -31 -37 29 -28 64 -26 105 5 52 39 41 74 -35 114 -23 12 -42 26 -42 31 0 5 20 9 45 9 52 0 60 18 20 44 -29 19 -42 19 -77 -2z"/> <path d="M3888 268 c-13 -10 -17 -35 -20 -103 l-3 -90 25 0 c21 0 26 5 28 33 2 17 7 32 11 32 5 0 20 -18 35 -41 15 -22 33 -39 39 -36 19 6 21 46 3 53 -18 7 -22 50 -6 56 6 2 13 20 17 41 5 35 4 38 -30 52 -44 18 -78 19 -99 3z m76 -41 c19 -14 13 -42 -11 -51 -21 -8 -33 2 -33 28 0 37 14 45 44 23z"/> <path d="M4146 238 c-9 -24 -16 -58 -16 -76 0 -18 -4 -32 -9 -32 -9 0 -35 63 -47 113 -4 19 -12 27 -23 25 -24 -5 -25 -41 -2 -84 12 -21 21 -50 21 -65 0 -25 26 -59 46 -59 20 0 64 121 67 184 3 45 -18 41 -37 -6z"/> <path d="M4225 271 c-12 -20 -12 -192 0 -208 20 -28 29 4 28 105 -1 88 -11 129 -28 103z"/> <path d="M4487 273 c-4 -3 -7 -50 -7 -103 0 -114 6 -123 77 -118 44 3 48 5 48 28 0 23 -4 25 -40 25 -36 0 -40 3 -40 25 0 17 7 26 25 30 27 6 35 34 10 36 -8 1 -21 2 -27 3 -7 0 -13 8 -13 16 0 11 11 15 39 15 43 0 55 9 45 34 -5 12 -20 16 -58 16 -29 0 -56 -3 -59 -7z"/> <path d="M286 192 c-3 -5 -2 -18 1 -30 l5 -22 1582 2 1581 3 0 25 0 25 -1582 3 c-870 1 -1584 -2 -1587 -6z"/> <path d="M4850 170 l0 -30 1580 0 1580 0 0 30 0 30 -1580 0 -1580 0 0 -30z"/> <path d="M138 66 c12 -26 18 -33 20 -21 2 10 -5 27 -17 38 l-20 21 17 -38z"/> </g> </svg> 