<svg width="273" height="59" viewBox="0 0 273 59" fill="none" xmlns="http://www.w3.org/2000/svg">
<path d="M16.3 30.5L16.84 31.7L13.16 33.96C12.5067 34.1333 11.88 34.2467 11.28 34.3C10.68 34.3667 10.0333 34.4 9.34 34.4C7.74 34.4 6.32 34.06 5.08 33.38C3.84 32.7 2.88 31.7667 2.2 30.58C1.52 29.38 1.18 28.02 1.18 26.5C1.18 24.94 1.68667 23.5 2.7 22.18C3.71333 20.8467 4.97333 19.8 6.48 19.04C8 18.2667 9.44 17.88 10.8 17.88C11.6267 17.88 12.6 17.98 13.72 18.18C14.84 18.38 15.66 18.5933 16.18 18.82V23.58H14.3C13.1267 21.3133 11.5733 20.18 9.64 20.18C8.8 20.18 8.03333 20.4133 7.34 20.88C6.66 21.3467 6.12 21.9867 5.72 22.8C5.32 23.6133 5.12 24.5267 5.12 25.54C5.12 26.7267 5.31333 27.82 5.7 28.82C6.1 29.8067 6.7 30.6 7.5 31.2C8.3 31.7867 9.28667 32.08 10.46 32.08C10.5133 32.08 10.76 32.08 11.2 32.08C11.64 32.08 12.1267 32.04 12.66 31.96V27.96L9.44 27.18L10.1 25.88H18.18V27L16.3 28.6V30.5ZM27.5081 32.7L26.8681 34H19.7881V32.88L21.6681 31.3V20.22L19.4481 19.58L20.1081 18.28H27.1881V19.4L25.2881 21V32.06L27.5081 32.7ZM36.0081 34H31.7681L26.0681 26.12L31.8481 21.04L29.5081 19.58L30.1681 18.28H36.1681V19.4L29.6481 25.14L34.4881 31.68L36.6681 32.7L36.0081 34ZM51.5 26.18C52.2067 26.18 52.7667 25.9333 53.18 25.44C53.5933 24.9467 53.8 24.2667 53.8 23.4C53.8 22.3467 53.5467 21.4933 53.04 20.84C52.5333 20.1733 51.7867 19.84 50.8 19.84C50.1467 19.84 49.5333 20.04 48.96 20.44V31.94L52.44 32.7L51.78 34H43.46V32.88L45.34 31.4V20.26L43.12 19.58L43.78 18.28H47.1C48.2867 18.28 49.4533 18.24 50.6 18.16C51.4533 18.1067 52.08 18.08 52.48 18.08C53.52 18.08 54.44 18.2867 55.24 18.7C56.04 19.1 56.66 19.6533 57.1 20.36C57.54 21.0667 57.76 21.8533 57.76 22.72C57.76 23.68 57.3933 24.58 56.66 25.42C55.9267 26.26 55 26.92 53.88 27.4C52.76 27.88 51.6667 28.0933 50.6 28.04L49.72 27.5L50.38 26.2H51.5V26.18ZM68.6598 17.88C70.1932 17.88 71.5465 18.22 72.7198 18.9C73.8932 19.58 74.7998 20.52 75.4398 21.72C76.0798 22.92 76.3998 24.28 76.3998 25.8C76.3998 27.36 75.9132 28.8 74.9398 30.12C73.9665 31.44 72.7598 32.4867 71.3198 33.26C69.8932 34.02 68.5332 34.4 67.2398 34.4C65.7065 34.4 64.3532 34.0667 63.1798 33.4C62.0198 32.72 61.1132 31.78 60.4598 30.58C59.8198 29.38 59.4998 28.02 59.4998 26.5C59.4998 24.94 59.9798 23.5 60.9398 22.18C61.9132 20.8467 63.1198 19.8 64.5598 19.04C65.9998 18.2667 67.3665 17.88 68.6598 17.88ZM67.4998 20.18C66.7532 20.18 66.0665 20.4133 65.4398 20.88C64.8265 21.3467 64.3398 21.9867 63.9798 22.8C63.6198 23.6133 63.4398 24.5267 63.4398 25.54C63.4398 26.74 63.6198 27.84 63.9798 28.84C64.3532 29.8267 64.9065 30.62 65.6398 31.22C66.3865 31.8067 67.3065 32.1 68.3998 32.1C69.1332 32.1 69.8065 31.8667 70.4198 31.4C71.0465 30.9333 71.5398 30.2933 71.8998 29.48C72.2598 28.6667 72.4398 27.7533 72.4398 26.74C72.4398 25.5267 72.2598 24.4267 71.8998 23.44C71.5398 22.4533 70.9865 21.6667 70.2398 21.08C69.5065 20.48 68.5932 20.18 67.4998 20.18ZM87.8591 17.88C89.3924 17.88 90.7457 18.22 91.9191 18.9C93.0924 19.58 93.9991 20.52 94.6391 21.72C95.2791 22.92 95.5991 24.28 95.5991 25.8C95.5991 27.36 95.1124 28.8 94.1391 30.12C93.1657 31.44 91.9591 32.4867 90.5191 33.26C89.0924 34.02 87.7324 34.4 86.4391 34.4C84.9057 34.4 83.5524 34.0667 82.3791 33.4C81.2191 32.72 80.3124 31.78 79.6591 30.58C79.0191 29.38 78.6991 28.02 78.6991 26.5C78.6991 24.94 79.1791 23.5 80.1391 22.18C81.1124 20.8467 82.3191 19.8 83.7591 19.04C85.1991 18.2667 86.5657 17.88 87.8591 17.88ZM86.6991 20.18C85.9524 20.18 85.2657 20.4133 84.6391 20.88C84.0257 21.3467 83.5391 21.9867 83.1791 22.8C82.8191 23.6133 82.6391 24.5267 82.6391 25.54C82.6391 26.74 82.8191 27.84 83.1791 28.84C83.5524 29.8267 84.1057 30.62 84.8391 31.22C85.5857 31.8067 86.5057 32.1 87.5991 32.1C88.3324 32.1 89.0057 31.8667 89.6191 31.4C90.2457 30.9333 90.7391 30.2933 91.0991 29.48C91.4591 28.6667 91.6391 27.7533 91.6391 26.74C91.6391 25.5267 91.4591 24.4267 91.0991 23.44C90.7391 22.4533 90.1857 21.6667 89.4391 21.08C88.7057 20.48 87.7924 20.18 86.6991 20.18ZM110.458 34H97.6983V32.88L99.5783 31.4V20.16L97.3583 19.58L98.0183 18.28H105.098V19.4L103.198 20.88V32.48H107.698L110.798 28L111.898 28.46V34.36L110.458 34ZM150.865 17.88C151.639 17.88 152.539 17.98 153.565 18.18C154.605 18.38 155.365 18.5933 155.845 18.82V23.08H153.945C152.919 21.1467 151.505 20.18 149.705 20.18C148.972 20.18 148.299 20.4133 147.685 20.88C147.072 21.3467 146.585 21.9867 146.225 22.8C145.879 23.6133 145.705 24.5267 145.705 25.54C145.705 26.6867 145.879 27.74 146.225 28.7C146.585 29.6467 147.125 30.4067 147.845 30.98C148.565 31.54 149.459 31.82 150.525 31.82C151.739 31.82 153.465 31.1533 155.705 29.82L156.505 31.1L152.825 33.96C152.239 34.1333 151.672 34.2467 151.125 34.3C150.592 34.3667 150.019 34.4 149.405 34.4C147.912 34.4 146.585 34.06 145.425 33.38C144.265 32.7 143.365 31.7667 142.725 30.58C142.085 29.38 141.765 28.02 141.765 26.5C141.765 24.94 142.245 23.5 143.205 22.18C144.165 20.8467 145.359 19.8 146.785 19.04C148.212 18.2667 149.572 17.88 150.865 17.88ZM171.064 34H158.304V32.88L160.184 31.4V20.16L157.964 19.58L158.624 18.28H165.704V19.4L163.804 20.88V32.48H168.304L171.404 28L172.504 28.46V34.36L171.064 34ZM186.881 34.02H174.241V32.9L176.121 31.42V20.24L173.901 19.58L174.561 18.28H186.681L188.121 17.92V23.02L187.021 23.46L184.561 19.8H179.741V25.2H182.121L183.581 22.96H184.701V28.78L183.401 29.44L182.101 26.74H179.741V32.48H184.401L187.221 28.4L188.321 28.86V34.38L186.881 34.02ZM207.468 34H200.028V32.88L202.208 31.58L200.987 28.6H194.808L193.708 31.28L196.768 32.7L196.128 34H189.667V32.88L191.828 31.26L196.948 18.92L200.408 17.9L206.088 31.68L208.128 32.7L207.468 34ZM197.928 21.06L195.448 27.06H200.368L197.928 21.06ZM223.668 21V34H221.948L212.568 23.3V31.64L215.408 32.7L214.768 34H208.968V32.88L210.848 31.3V20.8L208.628 19.58L209.288 18.28H212.808L221.948 28.68V20.62L219.108 19.58L219.768 18.28H225.568V19.4L223.668 21ZM234.036 33.98H226.956V32.86L228.836 31.28V20.2L226.616 19.56L227.276 18.26H234.356V19.38L232.456 20.98V32.06L234.676 32.68L234.036 33.98ZM250.953 21V34H249.233L239.853 23.3V31.64L242.693 32.7L242.053 34H236.253V32.88L238.133 31.3V20.8L235.913 19.58L236.573 18.28H240.093L249.233 28.68V20.62L246.393 19.58L247.053 18.28H252.853V19.4L250.953 21ZM269.581 30.5L270.121 31.7L266.441 33.96C265.788 34.1333 265.161 34.2467 264.561 34.3C263.961 34.3667 263.315 34.4 262.621 34.4C261.021 34.4 259.601 34.06 258.361 33.38C257.121 32.7 256.161 31.7667 255.481 30.58C254.801 29.38 254.461 28.02 254.461 26.5C254.461 24.94 254.968 23.5 255.981 22.18C256.995 20.8467 258.255 19.8 259.761 19.04C261.281 18.2667 262.721 17.88 264.081 17.88C264.908 17.88 265.881 17.98 267.001 18.18C268.121 18.38 268.941 18.5933 269.461 18.82V23.58H267.581C266.408 21.3133 264.855 20.18 262.921 20.18C262.081 20.18 261.315 20.4133 260.621 20.88C259.941 21.3467 259.401 21.9867 259.001 22.8C258.601 23.6133 258.401 24.5267 258.401 25.54C258.401 26.7267 258.595 27.82 258.981 28.82C259.381 29.8067 259.981 30.6 260.781 31.2C261.581 31.7867 262.568 32.08 263.741 32.08C263.795 32.08 264.041 32.08 264.481 32.08C264.921 32.08 265.408 32.04 265.941 31.96V27.96L262.721 27.18L263.381 25.88H271.461V27L269.581 28.6V30.5Z" fill="#001A4C"/>
<path d="M108.1 48.2C108.1 47.9933 108.017 47.8 107.85 47.62C107.683 47.4333 107.477 47.27 107.23 47.13C106.983 46.9833 106.64 46.7967 106.2 46.57C105.687 46.31 105.273 46.0867 104.96 45.9C104.653 45.7133 104.39 45.4933 104.17 45.24C103.957 44.98 103.85 44.6933 103.85 44.38C103.85 44.0467 103.987 43.69 104.26 43.31C104.533 42.9233 104.867 42.6 105.26 42.34C105.66 42.0733 106.027 41.94 106.36 41.94C106.767 41.94 107.237 41.99 107.77 42.09C108.31 42.19 108.703 42.2967 108.95 42.41V44.3H108.68C108.347 43.7533 107.98 43.3333 107.58 43.04C107.18 42.74 106.76 42.59 106.32 42.59C105.913 42.59 105.593 42.7167 105.36 42.97C105.127 43.2167 105.01 43.54 105.01 43.94C105.01 44.16 105.097 44.3667 105.27 44.56C105.443 44.7467 105.657 44.9167 105.91 45.07C106.17 45.2233 106.52 45.41 106.96 45.63C107.46 45.8833 107.86 46.1033 108.16 46.29C108.467 46.47 108.723 46.6867 108.93 46.94C109.143 47.1867 109.25 47.4633 109.25 47.77C109.25 48.1033 109.103 48.4633 108.81 48.85C108.517 49.23 108.157 49.5533 107.73 49.82C107.31 50.08 106.927 50.21 106.58 50.21C106.153 50.21 105.647 50.16 105.06 50.06C104.473 49.96 104.053 49.8533 103.8 49.74V47.85H104.07C104.423 48.3967 104.82 48.82 105.26 49.12C105.707 49.4133 106.163 49.56 106.63 49.56C106.923 49.56 107.18 49.4967 107.4 49.37C107.627 49.2433 107.8 49.0767 107.92 48.87C108.04 48.6567 108.1 48.4333 108.1 48.2ZM116.572 50H110.632V49.74L111.572 49V42.85L110.542 42.49L110.712 42.14H116.472L116.972 41.96V44.21L116.722 44.28L115.542 42.53H112.702V45.79H114.352L115.082 44.48H115.342V47.54L114.992 47.72L114.372 46.18H112.702V49.61H115.502L116.822 47.65L117.072 47.73V50.18L116.572 50ZM125.957 50.03H124.157L121.897 46.46L121.427 46.11L121.557 45.85H122.137C122.61 45.85 122.983 45.7367 123.257 45.51C123.53 45.2767 123.667 44.9567 123.667 44.55C123.667 44.01 123.517 43.56 123.217 43.2C122.917 42.84 122.477 42.66 121.897 42.66C121.51 42.66 121.157 42.7733 120.837 43V49.3L121.877 49.67L121.707 50.02H118.767V49.76L119.707 49.03V42.86L118.677 42.5L118.847 42.15H119.907C120.513 42.15 121.117 42.13 121.717 42.09C122.143 42.0633 122.463 42.05 122.677 42.05C123.11 42.05 123.497 42.14 123.837 42.32C124.177 42.5 124.44 42.7433 124.627 43.05C124.813 43.35 124.907 43.6833 124.907 44.05C124.907 44.3833 124.8 44.7033 124.587 45.01C124.373 45.3167 124.097 45.5833 123.757 45.81C123.423 46.03 123.07 46.1967 122.697 46.31L123.327 46.53L124.927 49.06L126.127 49.68L125.957 50.03ZM133.865 43.12L130.985 49.68L130.085 50.19L127.145 43.12L126.145 42.49L126.325 42.14H129.225V42.4L128.325 43.14L130.785 49.06L133.415 43.06L131.615 42.49L131.785 42.14H134.785L134.775 42.4L133.865 43.12ZM138.357 50.02H135.417V49.76L136.357 49.03V42.87L135.327 42.5L135.497 42.15H138.437V42.41L137.487 43.14V49.28L138.527 49.67L138.357 50.02ZM144.044 41.94C144.384 41.94 144.781 41.99 145.234 42.09C145.694 42.19 146.028 42.2967 146.234 42.41V44.31H145.964C145.338 43.25 144.504 42.72 143.464 42.72C143.004 42.72 142.588 42.8533 142.214 43.12C141.841 43.38 141.548 43.7433 141.334 44.21C141.121 44.67 141.014 45.19 141.014 45.77C141.014 46.4367 141.118 47.05 141.324 47.61C141.531 48.1633 141.848 48.6067 142.274 48.94C142.708 49.2733 143.241 49.44 143.874 49.44C144.428 49.44 145.231 48.9933 146.284 48.1L146.564 48.55L144.724 49.98C144.484 50.0667 144.251 50.1233 144.024 50.15C143.804 50.1833 143.568 50.2 143.314 50.2C142.628 50.2 142.018 50.03 141.484 49.69C140.951 49.35 140.534 48.8833 140.234 48.29C139.941 47.69 139.794 47.01 139.794 46.25C139.794 45.47 140.018 44.75 140.464 44.09C140.911 43.4233 141.468 42.9 142.134 42.52C142.801 42.1333 143.438 41.94 144.044 41.94ZM153.808 50H147.868V49.74L148.808 49V42.85L147.778 42.49L147.948 42.14H153.708L154.208 41.96V44.21L153.958 44.28L152.778 42.53H149.938V45.79H151.588L152.318 44.48H152.578V47.54L152.228 47.72L151.608 46.18H149.938V49.61H152.738L154.058 47.65L154.308 47.73V50.18L153.808 50ZM160.473 48.2C160.473 47.9933 160.39 47.8 160.223 47.62C160.056 47.4333 159.85 47.27 159.603 47.13C159.356 46.9833 159.013 46.7967 158.573 46.57C158.06 46.31 157.646 46.0867 157.333 45.9C157.026 45.7133 156.763 45.4933 156.543 45.24C156.33 44.98 156.223 44.6933 156.223 44.38C156.223 44.0467 156.36 43.69 156.633 43.31C156.906 42.9233 157.24 42.6 157.633 42.34C158.033 42.0733 158.4 41.94 158.733 41.94C159.14 41.94 159.61 41.99 160.143 42.09C160.683 42.19 161.076 42.2967 161.323 42.41V44.3H161.053C160.72 43.7533 160.353 43.3333 159.953 43.04C159.553 42.74 159.133 42.59 158.693 42.59C158.286 42.59 157.966 42.7167 157.733 42.97C157.5 43.2167 157.383 43.54 157.383 43.94C157.383 44.16 157.47 44.3667 157.643 44.56C157.816 44.7467 158.03 44.9167 158.283 45.07C158.543 45.2233 158.893 45.41 159.333 45.63C159.833 45.8833 160.233 46.1033 160.533 46.29C160.84 46.47 161.096 46.6867 161.303 46.94C161.516 47.1867 161.623 47.4633 161.623 47.77C161.623 48.1033 161.476 48.4633 161.183 48.85C160.89 49.23 160.53 49.5533 160.103 49.82C159.683 50.08 159.3 50.21 158.953 50.21C158.526 50.21 158.02 50.16 157.433 50.06C156.846 49.96 156.426 49.8533 156.173 49.74V47.85H156.443C156.796 48.3967 157.193 48.82 157.633 49.12C158.08 49.4133 158.536 49.56 159.003 49.56C159.296 49.56 159.553 49.4967 159.773 49.37C160 49.2433 160.173 49.0767 160.293 48.87C160.413 48.6567 160.473 48.4333 160.473 48.2Z" fill="#001A4C"/>
<path d="M0.00012207 46.1354L95 45.9857" stroke="black"/>
<path d="M171 46.0869L269 45.8603" stroke="black"/>
<path d="M119 22.3735L127.404 28.1282V37L119 31.2453V22.3735Z" fill="white"/>
<path d="M136.595 22.3735L128.192 28.1282V37L136.595 31.2453V22.3735Z" fill="white"/>
<path d="M127.815 16.2855L128.717 16.9785L120.221 22.7596L119.278 22.1312L127.815 16.2855Z" fill="white"/>
<path d="M126.775 17.0239L127.878 16.3408L136.497 22.1061L135.164 22.9521L126.775 17.0239Z" fill="white"/>
</svg>
