<svg width="218" height="246" viewBox="0 0 218 246" fill="none" xmlns="http://www.w3.org/2000/svg">
<path d="M82.8182 77C82.1818 74.7879 81.2879 72.8333 80.1364 71.1364C78.9849 69.4091 77.5758 67.9545 75.9091 66.7727C74.2727 65.5606 72.3939 64.6364 70.2727 64C68.1818 63.3636 65.8636 63.0455 63.3182 63.0455C58.5606 63.0455 54.3788 64.2273 50.7727 66.5909C47.197 68.9545 44.4091 72.3939 42.4091 76.9091C40.4091 81.3939 39.4091 86.8788 39.4091 93.3636C39.4091 99.8485 40.3939 105.364 42.3636 109.909C44.3333 114.455 47.1212 117.924 50.7273 120.318C54.3333 122.682 58.5909 123.864 63.5 123.864C67.9545 123.864 71.7576 123.076 74.9091 121.5C78.0909 119.894 80.5152 117.636 82.1818 114.727C83.8788 111.818 84.7273 108.379 84.7273 104.409L88.7273 105H64.7273V90.1818H103.682V101.909C103.682 110.091 101.955 117.121 98.5 123C95.0455 128.848 90.2879 133.364 84.2273 136.545C78.1667 139.697 71.2273 141.273 63.4091 141.273C54.6818 141.273 47.0152 139.348 40.4091 135.5C33.803 131.621 28.6515 126.121 24.9545 119C21.2879 111.848 19.4545 103.364 19.4545 93.5455C19.4545 86 20.5455 79.2727 22.7273 73.3636C24.9394 67.4242 28.0303 62.3939 32 58.2727C35.9697 54.1515 40.5909 51.0151 45.8636 48.8636C51.1364 46.7121 56.8485 45.6364 63 45.6364C68.2727 45.6364 73.1818 46.4091 77.7273 47.9545C82.2727 49.4697 86.303 51.6212 89.8182 54.4091C93.3636 57.197 96.2576 60.5151 98.5 64.3636C100.742 68.1818 102.182 72.3939 102.818 77H82.8182ZM124.866 140V46.9091H144.548V87.9545H145.775L179.275 46.9091H202.866L168.32 88.5909L203.275 140H179.73L154.23 101.727L144.548 113.545V140H124.866Z" fill="white"/>
<path d="M27.517 168V150.545H34.4034C35.7273 150.545 36.8551 150.798 37.7869 151.304C38.7188 151.804 39.429 152.5 39.9176 153.392C40.4119 154.278 40.6591 155.301 40.6591 156.46C40.6591 157.619 40.4091 158.642 39.9091 159.528C39.4091 160.415 38.6847 161.105 37.7358 161.599C36.7926 162.094 35.6506 162.341 34.3097 162.341H29.9205V159.384H33.7131C34.4233 159.384 35.0085 159.261 35.4688 159.017C35.9347 158.767 36.2813 158.423 36.5085 157.986C36.7415 157.543 36.858 157.034 36.858 156.46C36.858 155.881 36.7415 155.375 36.5085 154.943C36.2813 154.506 35.9347 154.168 35.4688 153.929C35.0028 153.685 34.4119 153.562 33.696 153.562H31.2074V168H27.517ZM59.0959 159.273C59.0959 161.176 58.7351 162.795 58.0135 164.131C57.2976 165.466 56.3203 166.486 55.0817 167.19C53.8487 167.889 52.4624 168.239 50.9226 168.239C49.3714 168.239 47.9794 167.886 46.7464 167.182C45.5135 166.477 44.5391 165.457 43.8232 164.122C43.1072 162.787 42.7493 161.17 42.7493 159.273C42.7493 157.369 43.1072 155.75 43.8232 154.415C44.5391 153.08 45.5135 152.062 46.7464 151.364C47.9794 150.659 49.3714 150.307 50.9226 150.307C52.4624 150.307 53.8487 150.659 55.0817 151.364C56.3203 152.062 57.2976 153.08 58.0135 154.415C58.7351 155.75 59.0959 157.369 59.0959 159.273ZM55.3544 159.273C55.3544 158.04 55.1697 157 54.8004 156.153C54.4368 155.307 53.9226 154.665 53.2578 154.227C52.593 153.79 51.8146 153.571 50.9226 153.571C50.0305 153.571 49.2521 153.79 48.5874 154.227C47.9226 154.665 47.4055 155.307 47.0362 156.153C46.6726 157 46.4908 158.04 46.4908 159.273C46.4908 160.506 46.6726 161.545 47.0362 162.392C47.4055 163.239 47.9226 163.881 48.5874 164.318C49.2521 164.756 50.0305 164.974 50.9226 164.974C51.8146 164.974 52.593 164.756 53.2578 164.318C53.9226 163.881 54.4368 163.239 54.8004 162.392C55.1697 161.545 55.3544 160.506 55.3544 159.273ZM77.8693 159.273C77.8693 161.176 77.5085 162.795 76.7869 164.131C76.071 165.466 75.0938 166.486 73.8551 167.19C72.6222 167.889 71.2358 168.239 69.696 168.239C68.1449 168.239 66.7528 167.886 65.5199 167.182C64.2869 166.477 63.3125 165.457 62.5966 164.122C61.8807 162.787 61.5227 161.17 61.5227 159.273C61.5227 157.369 61.8807 155.75 62.5966 154.415C63.3125 153.08 64.2869 152.062 65.5199 151.364C66.7528 150.659 68.1449 150.307 69.696 150.307C71.2358 150.307 72.6222 150.659 73.8551 151.364C75.0938 152.062 76.071 153.08 76.7869 154.415C77.5085 155.75 77.8693 157.369 77.8693 159.273ZM74.1278 159.273C74.1278 158.04 73.9432 157 73.5739 156.153C73.2102 155.307 72.696 154.665 72.0312 154.227C71.3665 153.79 70.5881 153.571 69.696 153.571C68.804 153.571 68.0256 153.79 67.3608 154.227C66.696 154.665 66.179 155.307 65.8097 156.153C65.446 157 65.2642 158.04 65.2642 159.273C65.2642 160.506 65.446 161.545 65.8097 162.392C66.179 163.239 66.696 163.881 67.3608 164.318C68.0256 164.756 68.804 164.974 69.696 164.974C70.5881 164.974 71.3665 164.756 72.0312 164.318C72.696 163.881 73.2102 163.239 73.5739 162.392C73.9432 161.545 74.1278 160.506 74.1278 159.273ZM80.603 168V150.545H84.2933V164.957H91.7763V168H80.603ZM105.059 168.256C103.854 168.256 102.815 168.04 101.94 167.608C101.065 167.176 100.391 166.591 99.9197 165.852C99.4538 165.108 99.2209 164.278 99.2209 163.364C99.2209 162.682 99.3572 162.077 99.63 161.548C99.9027 161.02 100.283 160.534 100.772 160.091C101.261 159.642 101.829 159.196 102.477 158.753L105.86 156.528C106.298 156.25 106.619 155.957 106.823 155.651C107.028 155.338 107.13 155 107.13 154.636C107.13 154.29 106.991 153.969 106.712 153.673C106.434 153.378 106.039 153.233 105.528 153.239C105.187 153.239 104.891 153.315 104.641 153.469C104.391 153.616 104.195 153.812 104.053 154.057C103.917 154.295 103.849 154.562 103.849 154.858C103.849 155.222 103.951 155.591 104.156 155.966C104.36 156.341 104.633 156.739 104.974 157.159C105.315 157.574 105.687 158.023 106.09 158.506L114.366 168H110.582L103.678 160.312C103.224 159.795 102.769 159.256 102.315 158.693C101.866 158.125 101.491 157.523 101.19 156.886C100.888 156.244 100.738 155.548 100.738 154.798C100.738 153.952 100.934 153.19 101.326 152.514C101.724 151.838 102.281 151.304 102.996 150.912C103.712 150.514 104.548 150.315 105.502 150.315C106.434 150.315 107.238 150.506 107.914 150.886C108.596 151.261 109.119 151.761 109.482 152.386C109.852 153.006 110.036 153.687 110.036 154.432C110.036 155.256 109.832 156.003 109.423 156.673C109.019 157.338 108.451 157.935 107.718 158.463L104.156 161.028C103.673 161.381 103.315 161.741 103.082 162.111C102.854 162.474 102.741 162.824 102.741 163.159C102.741 163.574 102.843 163.946 103.048 164.276C103.252 164.605 103.542 164.866 103.917 165.06C104.292 165.247 104.732 165.341 105.238 165.341C105.852 165.341 106.457 165.202 107.053 164.923C107.656 164.639 108.201 164.239 108.69 163.722C109.184 163.199 109.579 162.58 109.874 161.864C110.17 161.148 110.317 160.355 110.317 159.486H113.326C113.326 160.554 113.21 161.517 112.977 162.375C112.744 163.227 112.42 163.972 112.005 164.608C111.59 165.239 111.116 165.756 110.582 166.159C110.411 166.267 110.246 166.369 110.087 166.466C109.928 166.562 109.763 166.665 109.593 166.773C108.945 167.295 108.221 167.673 107.42 167.906C106.624 168.139 105.837 168.256 105.059 168.256ZM124.655 150.545L128.874 163.807H129.036L133.263 150.545H137.354L131.337 168H126.581L120.555 150.545H124.655ZM143.145 150.545V168H139.455V150.545H143.145ZM146.181 168V150.545H149.871V164.957H157.354V168H146.181ZM159.798 168V150.545H163.489V164.957H170.972V168H159.798ZM176.869 168H172.915L178.94 150.545H183.696L189.713 168H185.759L181.386 154.534H181.25L176.869 168ZM176.622 161.139H185.963V164.02H176.622V161.139ZM200.884 155.565C200.816 154.878 200.523 154.344 200.006 153.963C199.489 153.582 198.788 153.392 197.901 153.392C197.299 153.392 196.79 153.477 196.376 153.648C195.961 153.812 195.643 154.043 195.421 154.338C195.205 154.634 195.097 154.969 195.097 155.344C195.086 155.656 195.151 155.929 195.293 156.162C195.441 156.395 195.643 156.597 195.898 156.767C196.154 156.932 196.45 157.077 196.785 157.202C197.12 157.321 197.478 157.423 197.859 157.509L199.427 157.884C200.188 158.054 200.887 158.281 201.523 158.565C202.16 158.849 202.711 159.199 203.177 159.614C203.643 160.028 204.004 160.517 204.259 161.08C204.521 161.642 204.654 162.287 204.66 163.014C204.654 164.082 204.381 165.009 203.842 165.793C203.308 166.571 202.535 167.176 201.523 167.608C200.518 168.034 199.305 168.247 197.884 168.247C196.475 168.247 195.248 168.031 194.202 167.599C193.163 167.168 192.35 166.528 191.765 165.682C191.185 164.83 190.881 163.776 190.853 162.52H194.424C194.464 163.105 194.631 163.594 194.927 163.986C195.228 164.372 195.629 164.665 196.129 164.864C196.634 165.057 197.205 165.153 197.842 165.153C198.467 165.153 199.009 165.062 199.469 164.881C199.935 164.699 200.296 164.446 200.552 164.122C200.808 163.798 200.935 163.426 200.935 163.006C200.935 162.614 200.819 162.284 200.586 162.017C200.359 161.75 200.023 161.523 199.58 161.335C199.143 161.148 198.606 160.977 197.969 160.824L196.069 160.347C194.597 159.989 193.435 159.429 192.583 158.668C191.731 157.906 191.308 156.881 191.313 155.591C191.308 154.534 191.589 153.611 192.157 152.821C192.731 152.031 193.518 151.415 194.518 150.972C195.518 150.528 196.654 150.307 197.927 150.307C199.222 150.307 200.353 150.528 201.319 150.972C202.29 151.415 203.046 152.031 203.586 152.821C204.126 153.611 204.404 154.526 204.421 155.565H200.884ZM36.9858 184.565C36.9176 183.878 36.625 183.344 36.108 182.963C35.5909 182.582 34.8892 182.392 34.0028 182.392C33.4006 182.392 32.892 182.477 32.4773 182.648C32.0625 182.812 31.7443 183.043 31.5227 183.338C31.3068 183.634 31.1989 183.969 31.1989 184.344C31.1875 184.656 31.2528 184.929 31.3949 185.162C31.5426 185.395 31.7443 185.597 32 185.767C32.2557 185.932 32.5511 186.077 32.8864 186.202C33.2216 186.321 33.5795 186.423 33.9602 186.509L35.5284 186.884C36.2898 187.054 36.9886 187.281 37.625 187.565C38.2614 187.849 38.8125 188.199 39.2784 188.614C39.7443 189.028 40.1051 189.517 40.3608 190.08C40.6222 190.642 40.7557 191.287 40.7614 192.014C40.7557 193.082 40.483 194.009 39.9432 194.793C39.4091 195.571 38.6364 196.176 37.625 196.608C36.6193 197.034 35.4063 197.247 33.9858 197.247C32.5767 197.247 31.3494 197.031 30.304 196.599C29.2642 196.168 28.4517 195.528 27.8665 194.682C27.2869 193.83 26.983 192.776 26.9545 191.52H30.5256C30.5653 192.105 30.733 192.594 31.0284 192.986C31.3295 193.372 31.7301 193.665 32.2301 193.864C32.7358 194.057 33.3068 194.153 33.9432 194.153C34.5682 194.153 35.1108 194.062 35.571 193.881C36.0369 193.699 36.3977 193.446 36.6534 193.122C36.9091 192.798 37.0369 192.426 37.0369 192.006C37.0369 191.614 36.9205 191.284 36.6875 191.017C36.4602 190.75 36.125 190.523 35.6818 190.335C35.2443 190.148 34.7074 189.977 34.071 189.824L32.1705 189.347C30.6989 188.989 29.5369 188.429 28.6847 187.668C27.8324 186.906 27.4091 185.881 27.4148 184.591C27.4091 183.534 27.6903 182.611 28.2585 181.821C28.8324 181.031 29.6193 180.415 30.6193 179.972C31.6193 179.528 32.7557 179.307 34.0284 179.307C35.3239 179.307 36.4545 179.528 37.4205 179.972C38.392 180.415 39.1477 181.031 39.6875 181.821C40.2273 182.611 40.5057 183.526 40.5227 184.565H36.9858ZM43.2436 197V179.545H55.005V182.588H46.9339V186.747H54.3999V189.79H46.9339V193.957H55.0391V197H43.2436ZM57.9389 197V179.545H64.8253C66.1435 179.545 67.2685 179.781 68.2003 180.253C69.1378 180.719 69.8509 181.381 70.3395 182.239C70.8338 183.091 71.081 184.094 71.081 185.247C71.081 186.406 70.831 187.403 70.331 188.239C69.831 189.068 69.1065 189.705 68.1577 190.148C67.2145 190.591 66.0724 190.812 64.7315 190.812H60.1207V187.847H64.1349C64.8395 187.847 65.4247 187.75 65.8906 187.557C66.3565 187.364 66.7031 187.074 66.9304 186.688C67.1634 186.301 67.2798 185.821 67.2798 185.247C67.2798 184.668 67.1634 184.179 66.9304 183.781C66.7031 183.384 66.3537 183.082 65.8821 182.878C65.4162 182.668 64.8281 182.562 64.1179 182.562H61.6293V197H57.9389ZM67.3651 189.057L71.7031 197H67.6293L63.3849 189.057H67.3651ZM76.3736 179.545L80.5923 192.807H80.7543L84.9815 179.545H89.0724L83.0554 197H78.2997L72.2741 179.545H76.3736ZM94.8636 179.545V197H91.1733V179.545H94.8636ZM113.3 185.656H109.567C109.499 185.173 109.36 184.744 109.15 184.369C108.94 183.989 108.67 183.665 108.34 183.398C108.011 183.131 107.63 182.926 107.198 182.784C106.772 182.642 106.309 182.571 105.809 182.571C104.906 182.571 104.119 182.795 103.448 183.244C102.778 183.687 102.258 184.335 101.888 185.188C101.519 186.034 101.335 187.062 101.335 188.273C101.335 189.517 101.519 190.562 101.888 191.409C102.263 192.256 102.786 192.895 103.457 193.327C104.127 193.759 104.903 193.974 105.783 193.974C106.278 193.974 106.735 193.909 107.156 193.778C107.582 193.648 107.96 193.457 108.289 193.207C108.619 192.952 108.891 192.642 109.107 192.278C109.329 191.915 109.482 191.5 109.567 191.034L113.3 191.051C113.204 191.852 112.962 192.625 112.576 193.369C112.195 194.108 111.681 194.77 111.033 195.355C110.391 195.935 109.624 196.395 108.732 196.736C107.846 197.071 106.843 197.239 105.724 197.239C104.167 197.239 102.775 196.886 101.548 196.182C100.326 195.477 99.3601 194.457 98.6499 193.122C97.9453 191.787 97.593 190.17 97.593 188.273C97.593 186.369 97.951 184.75 98.6669 183.415C99.3828 182.08 100.354 181.062 101.582 180.364C102.809 179.659 104.19 179.307 105.724 179.307C106.735 179.307 107.673 179.449 108.536 179.733C109.406 180.017 110.175 180.432 110.846 180.977C111.516 181.517 112.062 182.179 112.482 182.963C112.908 183.747 113.181 184.645 113.3 185.656ZM115.947 197V179.545H127.708V182.588H119.637V186.747H127.103V189.79H119.637V193.957H127.742V197H115.947ZM140.111 184.565C140.043 183.878 139.75 183.344 139.233 182.963C138.716 182.582 138.014 182.392 137.128 182.392C136.526 182.392 136.017 182.477 135.602 182.648C135.188 182.812 134.869 183.043 134.648 183.338C134.432 183.634 134.324 183.969 134.324 184.344C134.313 184.656 134.378 184.929 134.52 185.162C134.668 185.395 134.869 185.597 135.125 185.767C135.381 185.932 135.676 186.077 136.011 186.202C136.347 186.321 136.705 186.423 137.085 186.509L138.653 186.884C139.415 187.054 140.114 187.281 140.75 187.565C141.386 187.849 141.938 188.199 142.403 188.614C142.869 189.028 143.23 189.517 143.486 190.08C143.747 190.642 143.881 191.287 143.886 192.014C143.881 193.082 143.608 194.009 143.068 194.793C142.534 195.571 141.761 196.176 140.75 196.608C139.744 197.034 138.531 197.247 137.111 197.247C135.702 197.247 134.474 197.031 133.429 196.599C132.389 196.168 131.577 195.528 130.991 194.682C130.412 193.83 130.108 192.776 130.08 191.52H133.651C133.69 192.105 133.858 192.594 134.153 192.986C134.455 193.372 134.855 193.665 135.355 193.864C135.861 194.057 136.432 194.153 137.068 194.153C137.693 194.153 138.236 194.062 138.696 193.881C139.162 193.699 139.523 193.446 139.778 193.122C140.034 192.798 140.162 192.426 140.162 192.006C140.162 191.614 140.045 191.284 139.812 191.017C139.585 190.75 139.25 190.523 138.807 190.335C138.369 190.148 137.832 189.977 137.196 189.824L135.295 189.347C133.824 188.989 132.662 188.429 131.81 187.668C130.957 186.906 130.534 185.881 130.54 184.591C130.534 183.534 130.815 182.611 131.384 181.821C131.957 181.031 132.744 180.415 133.744 179.972C134.744 179.528 135.881 179.307 137.153 179.307C138.449 179.307 139.58 179.528 140.545 179.972C141.517 180.415 142.273 181.031 142.812 181.821C143.352 182.611 143.631 183.526 143.648 184.565H140.111Z" fill="white"/>
<line x1="114" y1="3" x2="6" y2="3" stroke="white" stroke-width="6"/>
<line x1="112" y1="206" x2="112" y2="246" stroke="white" stroke-width="6"/>
<line x1="112" y1="-4.02126e-09" x2="112" y2="40" stroke="white" stroke-width="6"/>
<line x1="3" y1="246" x2="3" y2="-7.37256e-09" stroke="white" stroke-width="6"/>
<line x1="114" y1="243" x2="6" y2="243" stroke="white" stroke-width="6"/>
</svg>
